<svg width="735" height="843" viewBox="0 0 735 843" fill="none" xmlns="http://www.w3.org/2000/svg">
<path fill-rule="evenodd" clip-rule="evenodd" d="M588.219 15.3487C685.638 44.8234 784.441 98.4978 830.273 187.442C874.069 272.436 836.438 370.528 818.819 462.863C804.447 538.174 785.426 611.575 737.811 671.976C690.808 731.602 625.354 771.218 553.518 799.407C475.28 830.109 393.92 849.172 309.253 840.148C205.249 829.063 74.7748 829.161 18.6268 742.397C-37.8898 655.062 53.6979 548.2 54.1875 445.999C54.6746 344.316 -29.5975 237.113 21.4674 149.419C72.6813 61.4682 197.058 50.5179 298.444 26.5341C394.347 3.84726 492.947 -13.4765 588.219 15.3487Z" fill="#FFBE0C"/>
</svg>
